# xmcd CD database file
#
# Track frame offsets:
#	150
#	11400
#	25640
#	37176
#	51405
#	65525
#	78920
#	90545
#	104424
#	117970
#	129172
#	140769
#	153233
#	167565
#	179851
#
# Disc length: 2573 seconds
#
# Revision: 0
# Processed by: cddbd v1.4PL0 Copyright (c) Steve Scherf et al.
# Submitted via: CDex 1.50beta10
#
DISCID=c50a0b0f
DTITLE=Ella Fitzgerald - Ella Fitzgerald CD3
DYEAR=2000
DGENRE=Jazz
TTITLE0=A TISKET - A TASKET
TTITLE1=CRYING MY HEART OUT FOR YOU
TTITLE2=BABY WON'T YOU PLEASE COME HOME
TTITLE3=LOVE YOU'RE JUST A LAUGH
TTITLE4=DARKTOWN STRUTTER'S BALL
TTITLE5=COW COW BOOGIE
TTITLE6=I'LL CHASE THE BLUES AWAY
TTITLE7=YOU CAN'T BE MINE AND SOMEBODY ELSE'S TOO
TTITLE8=YOU'LL HAVE TO SWING IT (MR. PAGANINI)
TTITLE9=WHEN I GET LOW I GET HIGH
TTITLE10=THREE LITTLE WORDS
TTITLE11=CAN'T HELP LOVIN' THAT WOMAN
TTITLE12=FIVE O'CLOCK WHISTLE
TTITLE13=DEEDLE-DE-DUM
TTITLE14=LITTLE WHITE LIES
EXTD=YEAR: 2000
EXTT0=
EXTT1=
EXTT2=
EXTT3=
EXTT4=
EXTT5=
EXTT6=
EXTT7=
EXTT8=
EXTT9=
EXTT10=
EXTT11=
EXTT12=
EXTT13=
EXTT14=
PLAYORDER=
